<?xml version="1.0" encoding="UTF-8" standalone="no"?>
<!-- Created with Inkscape (http://www.inkscape.org/) -->

<svg
   width="48"
   height="48"
   viewBox="0 0 12.7 12.7"
   version="1.1"
   id="svg1"
   inkscape:version="1.3.1 (9b9bdc1480, 2023-11-25, custom)"
   sodipodi:docname="icon.svg"
   xmlns:inkscape="http://www.inkscape.org/namespaces/inkscape"
   xmlns:sodipodi="http://sodipodi.sourceforge.net/DTD/sodipodi-0.dtd"
   xmlns:xlink="http://www.w3.org/1999/xlink"
   xmlns="http://www.w3.org/2000/svg"
   xmlns:svg="http://www.w3.org/2000/svg">
  <sodipodi:namedview
     id="namedview1"
     pagecolor="#ffffff"
     bordercolor="#000000"
     borderopacity="0.25"
     inkscape:showpageshadow="2"
     inkscape:pageopacity="0.0"
     inkscape:pagecheckerboard="0"
     inkscape:deskcolor="#d1d1d1"
     inkscape:document-units="mm"
     inkscape:zoom="10.647475"
     inkscape:cx="8.405749"
     inkscape:cy="20.521298"
     inkscape:window-width="1920"
     inkscape:window-height="950"
     inkscape:window-x="0"
     inkscape:window-y="32"
     inkscape:window-maximized="1"
     inkscape:current-layer="layer1" />
  <defs
     id="defs1">
    <inkscape:path-effect
       effect="fillet_chamfer"
       id="path-effect8105-1"
       is_visible="true"
       lpeversion="1"
       nodesatellites_param="F,0,0,1,0,0,0,1 @ F,0,0,1,0,0,0,1 @ F,0,0,1,0,3.2449884,0,1 @ F,0,0,1,0,0.73538007,0,1 @ F,0,0,1,0,0.73538007,0,1 @ F,0,0,1,0,2.3436589,0,1 @ F,0,0,1,0,0,0,1 @ F,0,0,1,0,0,0,1 @ F,0,0,1,0,2.3436589,0,1 @ F,0,0,1,0,8.1033904,0,1"
       radius="0"
       unit="px"
       method="auto"
       mode="F"
       chamfer_steps="1"
       flexible="false"
       use_knot_distance="true"
       apply_no_radius="true"
       apply_with_radius="true"
       only_selected="false"
       hide_knots="false" />
    <inkscape:path-effect
       effect="fillet_chamfer"
       id="path-effect8105"
       is_visible="true"
       lpeversion="1"
       nodesatellites_param="F,0,0,1,0,0,0,1 @ F,0,0,1,0,0,0,1 @ F,0,0,1,0,3.2449884,0,1 @ F,0,0,1,0,0.73538007,0,1 @ F,0,0,1,0,0.73538007,0,1 @ F,0,0,1,0,2.3436589,0,1 @ F,0,0,1,0,0,0,1 @ F,0,0,1,0,0,0,1 @ F,0,0,1,0,2.3436589,0,1 @ F,0,0,1,0,8.1033904,0,1"
       radius="0"
       unit="px"
       method="auto"
       mode="F"
       chamfer_steps="1"
       flexible="false"
       use_knot_distance="true"
       apply_no_radius="true"
       apply_with_radius="true"
       only_selected="false"
       hide_knots="false" />
    <linearGradient
       inkscape:collect="always"
       xlink:href="#linearGradient8101-1"
       id="linearGradient8102"
       x1="204.47386"
       y1="131.44353"
       x2="237.2326"
       y2="130.24475"
       gradientUnits="userSpaceOnUse"
       gradientTransform="matrix(0.23169523,0,0,0.23169523,-45.987236,-20.342421)" />
    <linearGradient
       id="linearGradient8101-1">
      <stop
         style="stop-color:#474747;stop-opacity:1;"
         offset="0"
         id="stop8101" />
      <stop
         style="stop-color:#ffffff;stop-opacity:1;"
         offset="1"
         id="stop8105" />
    </linearGradient>
    <linearGradient
       inkscape:collect="always"
       xlink:href="#linearGradient8101-1"
       id="linearGradient8105"
       gradientUnits="userSpaceOnUse"
       x1="204.47386"
       y1="131.44353"
       x2="237.2326"
       y2="130.24475"
       gradientTransform="matrix(0.23169523,0,0,0.23169523,-46.222071,-19.259052)" />
  </defs>
  <g
     inkscape:label="Capa 1"
     inkscape:groupmode="layer"
     id="layer1">
    <path
       style="fill:url(#linearGradient8102);fill-opacity:1;stroke:none;stroke-width:0.347543;stroke-linecap:round;stroke-linejoin:round;stroke-miterlimit:4;stroke-dasharray:none;stroke-opacity:1;paint-order:stroke fill markers;image-rendering:auto"
       d="m 1.4659336,11.384368 c 0,0 0.344169,-1.6344654 2.4348362,-1.7004634 2.0906648,-0.066 4.4549061,0.315617 4.4549061,0.315617 0,0 0.2803883,0.5413714 0.3575382,1.1009554 0,0 -2.149483,-0.556433 -4.3268806,-0.599222 -1.8529969,-0.03641 -2.9203999,0.883113 -2.9203999,0.883113 z"
       id="path8101"
       sodipodi:nodetypes="csccsc" />
    <path
       style="fill:url(#linearGradient8105);fill-opacity:1;stroke:none;stroke-width:0.347543;stroke-linecap:round;stroke-linejoin:round;stroke-miterlimit:4;stroke-dasharray:none;stroke-opacity:1;paint-order:stroke fill markers;image-rendering:auto"
       d="m 1.2310986,12.467738 c 0,0 0.396088,-1.569999 2.4867548,-1.635998 2.0906648,-0.066 5.0200293,0.527505 5.0200293,0.527505 0,0 0.052868,0.481746 -0.1260052,1.033864 0,0 -2.9042834,-0.623096 -5.0816809,-0.665885 -1.852997,-0.03641 -2.299098,0.740514 -2.299098,0.740514 z"
       id="path8101-2"
       sodipodi:nodetypes="csccsc" />
    <path
       style="fill:#ff8e2b;fill-opacity:1;stroke:none;stroke-width:1.5;stroke-linecap:round;stroke-linejoin:round;stroke-miterlimit:4;stroke-dasharray:none;stroke-opacity:1;paint-order:stroke fill markers;image-rendering:auto"
       d="m 236.15821,141.2851 c 0,0 2.99233,-1.96212 3.96296,-4.50987 0.51704,-1.35715 0.19394,-3.80494 -0.22095,-5.79636 -0.36527,-1.75327 -1.43769,-4.44765 -2.24504,-6.04764 -0.7178,-1.42253 -1.56343,-3.06782 -2.19214,-4.19805 -0.19706,-0.35425 -0.53214,-0.92045 -0.73892,-1.27001 -1.28854,-2.17836 -4.05388,-6.86627 -5.05741,-8.56771 -0.20632,-0.34982 -0.50462,-0.93557 -0.65146,-1.31421 -0.50761,-1.30893 -1.55392,-4.33087 -1.78479,-7.52313 -0.0932,-1.28862 0.064,-3.389768 0.29424,-4.662923 0.65212,-3.605669 1.93944,-5.694896 1.93944,-5.694896 0,0 -6.48758,4.90455 -6.38882,11.246029 0.0542,3.47739 0.70082,6.15816 1.27386,7.87034 0.41032,1.22596 1.43938,3.05981 2.11209,4.16564 l 2.55471,4.1996 c 2.32593,3.8235 6.05592,10.11878 7.21555,14.43256 0.74105,2.75669 1.04337,5.68537 -0.0733,7.67063 z"
       id="path8105"
       sodipodi:nodetypes="cscscscsccc"
       inkscape:path-effect="#path-effect8105"
       inkscape:original-d="m 236.15821,141.2851 c 0,0 2.99233,-1.96212 3.96296,-4.50987 0.97063,-2.54776 -1.01956,-8.93923 -1.01956,-8.93923 0,0 -2.78622,-5.68746 -4.00286,-7.74003 -1.23209,-2.07863 -5.80561,-9.83392 -5.80561,-9.83392 0,0 -2.45504,-5.52643 -2.06678,-10.543278 0.38827,-5.016852 2.23778,-8.018471 2.23778,-8.018471 0,0 -6.48758,4.90455 -6.38882,11.246029 0.0988,6.34148 2.16791,10.0337 2.16791,10.0337 l 7.98421,13.12493 c 0,0 5.63924,10.36502 2.93077,15.18014 z"
       transform="matrix(0.23169523,0,0,0.23169523,-45.987236,-20.342421)" />
    <path
       style="fill:#ff8e2b;fill-opacity:1;stroke:none;stroke-width:1.5;stroke-linecap:round;stroke-linejoin:round;stroke-miterlimit:4;stroke-dasharray:none;stroke-opacity:1;paint-order:stroke fill markers;image-rendering:auto"
       d="m 234.93742,141.67758 c 0,0 3.77844,-2.12347 4.74907,-4.67122 0.52199,-1.37014 0.31339,-3.91877 0.009,-5.98209 -0.26137,-1.77195 -1.23299,-4.49305 -2.04034,-6.09304 -0.7178,-1.42253 -1.56343,-3.06782 -2.19214,-4.19805 -0.19706,-0.35425 -0.53214,-0.92045 -0.73892,-1.27001 -1.28854,-2.17836 -4.05388,-6.86627 -5.05741,-8.56771 -0.20632,-0.34982 -0.50462,-0.93557 -0.65146,-1.31421 -0.50761,-1.30893 -1.55392,-4.33087 -1.78479,-7.52313 -0.0932,-1.28862 0.064,-3.389768 0.29424,-4.662923 0.65212,-3.605669 1.93944,-5.694896 1.93944,-5.694896 0,0 -6.48758,4.90455 -6.38882,11.246029 0.0542,3.47739 0.70082,6.15816 1.27386,7.87034 0.41032,1.22596 1.43938,3.05981 2.11209,4.16564 l 2.55471,4.1996 c 2.32593,3.8235 5.67917,10.28641 6.5555,14.66947 0.61592,3.08059 0.76929,6.26062 -0.63406,7.8262 z"
       id="path8105-5"
       sodipodi:nodetypes="cscscscsccc"
       inkscape:path-effect="#path-effect8105-1"
       inkscape:original-d="m 234.93742,141.67758 c 0,0 3.77844,-2.12347 4.74907,-4.67122 0.97063,-2.54776 -0.58488,-9.17036 -0.58488,-9.17036 0,0 -2.78622,-5.68746 -4.00286,-7.74003 -1.23209,-2.07863 -5.80561,-9.83392 -5.80561,-9.83392 0,0 -2.45504,-5.52643 -2.06678,-10.543278 0.38827,-5.016852 2.23778,-8.018471 2.23778,-8.018471 0,0 -6.48758,4.90455 -6.38882,11.246029 0.0988,6.34148 2.16791,10.0337 2.16791,10.0337 l 7.98421,13.12493 c 0,0 4.91511,11.99698 1.70998,15.57262 z"
       transform="matrix(0.23169523,0,0,0.23169523,-44.80623,-21.140848)" />
  </g>
</svg>
