<?xml version="1.0" standalone="no"?>
<!DOCTYPE svg PUBLIC "-//W3C//DTD SVG 20010904//EN"
 "http://www.w3.org/TR/2001/REC-SVG-20010904/DTD/svg10.dtd">
<svg version="1.0" xmlns="http://www.w3.org/2000/svg"
 width="487.000000pt" height="168.000000pt" viewBox="0 0 487.000000 168.000000"
 preserveAspectRatio="xMidYMid meet">

<g transform="translate(0.000000,168.000000) scale(0.100000,-0.100000)"
fill="#000000" stroke="none">
<path d="M3787 630 c-6 -16 -15 -30 -19 -30 -4 0 -8 -7 -8 -15 0 -12 3 -13 19
-3 11 7 18 15 15 19 -2 4 0 19 6 33 5 14 7 26 4 26 -3 0 -11 -13 -17 -30z"/>
<path d="M3860 575 c-7 -9 -10 -18 -7 -21 3 -3 10 4 17 15 13 25 8 27 -10 6z"/>
<path d="M3774 566 c-39 -18 -64 -144 -44 -224 7 -30 25 -66 45 -89 l33 -38
-5 60 c-3 34 0 87 8 120 7 33 12 64 10 69 -1 4 4 15 11 23 9 11 9 16 0 22 -7
4 -10 14 -7 22 9 24 -26 47 -51 35z"/>
<path d="M3887 472 c-15 -37 -27 -74 -27 -83 0 -8 -5 -20 -11 -26 -7 -7 -10
-35 -7 -71 3 -46 12 -71 36 -108 l32 -49 0 50 c0 71 30 185 64 245 16 27 17
32 4 22 -13 -10 -17 -10 -22 0 -3 7 -3 3 -1 -9 8 -30 -13 -39 -25 -11 -10 21
-10 20 -5 -7 4 -29 4 -29 -7 -6 -10 20 -9 25 6 37 16 11 17 14 4 19 -10 4 -13
15 -10 35 2 17 3 30 1 30 -2 0 -16 -30 -32 -68z"/>
<path d="M2116 493 c-3 -3 -6 -29 -6 -56 0 -47 -1 -49 -17 -35 -45 39 -109 25
-138 -32 -21 -40 -19 -71 8 -110 29 -44 65 -55 111 -36 50 21 66 62 66 175 0
82 -7 111 -24 94z m-24 -120 c25 -23 24 -84 -2 -108 -27 -24 -76 -23 -101 2
-26 25 -28 77 -4 103 22 25 81 27 107 3z"/>
<path d="M2397 493 c-4 -3 -7 -55 -7 -115 0 -105 1 -110 27 -134 26 -24 44
-27 50 -8 2 5 -7 14 -19 19 -22 9 -23 17 -26 120 -3 103 -9 134 -25 118z"/>
<path d="M3097 493 c-4 -3 -7 -55 -7 -115 0 -103 1 -110 25 -134 25 -25 45
-28 52 -8 2 5 -7 14 -19 19 -22 9 -23 16 -26 128 -2 108 -7 128 -25 110z"/>
<path d="M2990 376 c0 -112 1 -115 27 -136 27 -21 44 -22 51 -2 2 7 -5 12 -17
12 -30 0 -35 17 -32 103 3 84 -5 137 -20 137 -5 0 -9 -51 -9 -114z"/>
<path d="M2232 418 c-56 -15 -88 -89 -61 -141 28 -53 75 -75 122 -58 40 15 35
35 -7 27 -44 -8 -63 0 -81 35 l-15 28 82 3 c75 3 83 5 86 24 4 26 -31 70 -65
81 -17 6 -41 6 -61 1z m78 -38 c37 -37 26 -45 -50 -42 -38 2 -70 6 -70 10 0 3
9 15 20 27 26 28 74 31 100 5z"/>
<path d="M2820 423 c-49 -18 -82 -80 -69 -126 19 -65 78 -99 129 -74 19 10 32
11 38 5 21 -21 31 3 26 64 -5 72 -23 104 -69 124 -19 8 -36 14 -37 13 -2 0
-10 -3 -18 -6z m69 -43 c23 -12 34 -62 21 -95 -11 -30 -51 -48 -87 -39 -49 13
-65 100 -24 131 19 15 66 17 90 3z"/>
<path d="M3250 419 c-60 -24 -83 -79 -57 -141 24 -58 123 -88 141 -42 4 11 -2
13 -34 8 -33 -5 -42 -2 -64 19 -14 15 -26 31 -26 37 0 6 31 10 80 10 88 0 98
7 81 53 -17 45 -78 73 -121 56z m86 -46 l29 -28 -74 -3 c-40 -2 -76 0 -80 3
-10 11 49 55 73 55 13 0 36 -12 52 -27z"/>
<path d="M2560 412 c0 -4 4 -12 8 -17 5 -6 24 -47 42 -92 19 -46 36 -83 39
-83 8 0 81 172 81 188 0 7 -4 12 -9 12 -9 0 -51 -95 -51 -116 0 -36 -31 -7
-55 51 -16 36 -34 65 -42 65 -7 0 -13 -4 -13 -8z"/>
</g>
</svg>
